%TF.GenerationSoftware,KiCad,Pcbnew,9.0.6*%
%TF.CreationDate,2025-12-27T11:49:52+07:00*%
%TF.ProjectId,pcd_adc,7063645f-6164-4632-9e6b-696361645f70,rev?*%
%TF.SameCoordinates,Original*%
%TF.FileFunction,Copper,L1,Top*%
%TF.FilePolarity,Positive*%
%FSLAX46Y46*%
G04 Gerber Fmt 4.6, Leading zero omitted, Abs format (unit mm)*
G04 Created by KiCad (PCBNEW 9.0.6) date 2025-12-27 11:49:52*
%MOMM*%
%LPD*%
G01*
G04 APERTURE LIST*
%TA.AperFunction,ComponentPad*%
%ADD10O,3.000000X2.500000*%
%TD*%
%TA.AperFunction,ComponentPad*%
%ADD11R,1.879600X1.879600*%
%TD*%
%TA.AperFunction,ComponentPad*%
%ADD12C,1.879600*%
%TD*%
%TA.AperFunction,ComponentPad*%
%ADD13C,2.000000*%
%TD*%
%TA.AperFunction,ComponentPad*%
%ADD14C,1.600000*%
%TD*%
%TA.AperFunction,ComponentPad*%
%ADD15R,2.800000X2.800000*%
%TD*%
%TA.AperFunction,ComponentPad*%
%ADD16C,2.800000*%
%TD*%
%TA.AperFunction,ComponentPad*%
%ADD17R,1.222000X1.222000*%
%TD*%
%TA.AperFunction,ComponentPad*%
%ADD18C,1.222000*%
%TD*%
%TA.AperFunction,ComponentPad*%
%ADD19C,1.500000*%
%TD*%
%TA.AperFunction,ComponentPad*%
%ADD20O,2.300000X1.800000*%
%TD*%
%TA.AperFunction,ComponentPad*%
%ADD21R,2.200000X1.700000*%
%TD*%
%TA.AperFunction,ViaPad*%
%ADD22C,5.000000*%
%TD*%
%TA.AperFunction,ViaPad*%
%ADD23C,0.600000*%
%TD*%
%TA.AperFunction,Conductor*%
%ADD24C,1.500000*%
%TD*%
%TA.AperFunction,Conductor*%
%ADD25C,2.000000*%
%TD*%
%TA.AperFunction,Conductor*%
%ADD26C,1.000000*%
%TD*%
%TA.AperFunction,Conductor*%
%ADD27C,1.270000*%
%TD*%
G04 APERTURE END LIST*
D10*
%TO.P,BTN1,1,1*%
%TO.N,GND*%
X209600000Y-96550000D03*
X197100000Y-96550000D03*
%TO.P,BTN1,2,2*%
%TO.N,/PD2*%
X209600000Y-91550000D03*
X197100000Y-91550000D03*
%TD*%
D11*
%TO.P,U2,1,VSS*%
%TO.N,GND*%
X139100000Y-53050000D03*
D12*
%TO.P,U2,2,VDD*%
%TO.N,+5V*%
X141640000Y-53050000D03*
%TO.P,U2,3,VO*%
%TO.N,/LCD_VO*%
X144180000Y-53050000D03*
%TO.P,U2,4,RS*%
%TO.N,/PC2*%
X146720000Y-53050000D03*
%TO.P,U2,5,R/W*%
%TO.N,/PC1*%
X149260000Y-53050000D03*
%TO.P,U2,6,E*%
%TO.N,/PC0*%
X151800000Y-53050000D03*
%TO.P,U2,7,DB0*%
%TO.N,GND*%
X154340000Y-53050000D03*
%TO.P,U2,8,DB1*%
%TO.N,unconnected-(U2-DB1-Pad8)*%
X156880000Y-53050000D03*
%TO.P,U2,9,DB2*%
%TO.N,unconnected-(U2-DB2-Pad9)*%
X159420000Y-53050000D03*
%TO.P,U2,10,DB3*%
%TO.N,unconnected-(U2-DB3-Pad10)*%
X161960000Y-53050000D03*
%TO.P,U2,11,DB4*%
%TO.N,/PB2*%
X164500000Y-53050000D03*
%TO.P,U2,12,DB5*%
%TO.N,/PB3*%
X167040000Y-53050000D03*
%TO.P,U2,13,DB6*%
%TO.N,/PB4*%
X169580000Y-53050000D03*
%TO.P,U2,14,DB7*%
%TO.N,/PB5*%
X172120000Y-53050000D03*
%TO.P,U2,15,A*%
%TO.N,Net-(U2-A)*%
X174660000Y-53050000D03*
%TO.P,U2,16,K*%
%TO.N,GND*%
X177200000Y-53050000D03*
%TD*%
D10*
%TO.P,BTN2,1,1*%
%TO.N,GND*%
X166550000Y-96600000D03*
X154050000Y-96600000D03*
%TO.P,BTN2,2,2*%
%TO.N,/PD3*%
X166550000Y-91600000D03*
X154050000Y-91600000D03*
%TD*%
D13*
%TO.P,C6,1*%
%TO.N,GND*%
X199000000Y-64250000D03*
%TO.P,C6,2*%
%TO.N,/PD0*%
X199000000Y-71750000D03*
%TD*%
D14*
%TO.P,R7,1*%
%TO.N,+5V*%
X202360000Y-78200000D03*
%TO.P,R7,2*%
%TO.N,/~{RESET}{slash}PC6*%
X192200000Y-78200000D03*
%TD*%
D15*
%TO.P,J2,1,Pin_1*%
%TO.N,+5V*%
X127000000Y-93205000D03*
D16*
%TO.P,J2,2,Pin_2*%
%TO.N,GND*%
X127000000Y-98285000D03*
%TD*%
D17*
%TO.P,VR1,1*%
%TO.N,+5V*%
X139150000Y-61490000D03*
D18*
%TO.P,VR1,2*%
%TO.N,/LCD_VO*%
X136610000Y-58950000D03*
%TO.P,VR1,3*%
%TO.N,GND*%
X139150000Y-56410000D03*
%TD*%
D14*
%TO.P,R3,1*%
%TO.N,+5V*%
X139920000Y-91500000D03*
%TO.P,R3,2*%
%TO.N,/PD3*%
X150080000Y-91500000D03*
%TD*%
D13*
%TO.P,C9,1*%
%TO.N,GND*%
X175000000Y-99000000D03*
%TO.P,C9,2*%
%TO.N,/PD3*%
X175000000Y-91500000D03*
%TD*%
D14*
%TO.P,R1,1*%
%TO.N,+5V*%
X149660000Y-71250000D03*
%TO.P,R1,2*%
%TO.N,/SCL*%
X139500000Y-71250000D03*
%TD*%
%TO.P,R5,1*%
%TO.N,+5V*%
X202360000Y-81300000D03*
%TO.P,R5,2*%
%TO.N,/PD0*%
X192200000Y-81300000D03*
%TD*%
D13*
%TO.P,C8,1*%
%TO.N,GND*%
X188000000Y-99050000D03*
%TO.P,C8,2*%
%TO.N,/PD2*%
X188000000Y-91550000D03*
%TD*%
D19*
%TO.P,Y1,1,1*%
%TO.N,Net-(U1-XTAL2{slash}PB7)*%
X170400000Y-83300000D03*
%TO.P,Y1,2,2*%
%TO.N,Net-(U1-XTAL1{slash}PB6)*%
X175280000Y-83300000D03*
%TD*%
D20*
%TO.P,J1,1,Pin_1*%
%TO.N,/SDA*%
X133650000Y-74450000D03*
D21*
%TO.P,J1,2,Pin_2*%
%TO.N,/SCL*%
X133650000Y-71910000D03*
%TD*%
D14*
%TO.P,R4,1*%
%TO.N,+5V*%
X202360000Y-84400000D03*
%TO.P,R4,2*%
%TO.N,/PD2*%
X192200000Y-84400000D03*
%TD*%
%TO.P,R2,1*%
%TO.N,+5V*%
X149660000Y-75000000D03*
%TO.P,R2,2*%
%TO.N,/SDA*%
X139500000Y-75000000D03*
%TD*%
D13*
%TO.P,C5,1*%
%TO.N,GND*%
X147400000Y-97500000D03*
%TO.P,C5,2*%
%TO.N,+5V*%
X139900000Y-97500000D03*
%TD*%
D22*
%TO.N,GND*%
X216350000Y-45250000D03*
X125850000Y-105300000D03*
X125850000Y-45300000D03*
X216300000Y-105300000D03*
D23*
%TO.N,+5V*%
X148100000Y-67750000D03*
X139150000Y-65550000D03*
X141640000Y-55990000D03*
%TO.N,/SDA*%
X190450000Y-55550000D03*
%TO.N,/SCL*%
X194400000Y-55350000D03*
%TD*%
D24*
%TO.N,+5V*%
X139150000Y-65550000D02*
X141550000Y-65550000D01*
X141550000Y-65550000D02*
X143750000Y-67750000D01*
D25*
X141640000Y-61290000D02*
X148100000Y-67750000D01*
D24*
X143750000Y-67750000D02*
X148100000Y-67750000D01*
D25*
X141640000Y-55990000D02*
X141640000Y-61290000D01*
D26*
%TO.N,/SDA*%
X141001000Y-73499000D02*
X139500000Y-75000000D01*
X190450000Y-60150000D02*
X177101000Y-73499000D01*
X177101000Y-73499000D02*
X141001000Y-73499000D01*
X190450000Y-55550000D02*
X190450000Y-60150000D01*
D27*
%TO.N,/SCL*%
X137499000Y-75828842D02*
X138671158Y-77001000D01*
X139500000Y-71250000D02*
X137499000Y-73251000D01*
X192650000Y-60550000D02*
X192650000Y-57100000D01*
X138671158Y-77001000D02*
X176199000Y-77001000D01*
X176199000Y-77001000D02*
X192650000Y-60550000D01*
X192650000Y-57100000D02*
X194400000Y-55350000D01*
X137499000Y-73251000D02*
X137499000Y-75828842D01*
%TD*%
M02*
