%TF.GenerationSoftware,KiCad,Pcbnew,9.0.6*%
%TF.CreationDate,2025-12-27T11:49:52+07:00*%
%TF.ProjectId,pcd_adc,7063645f-6164-4632-9e6b-696361645f70,rev?*%
%TF.SameCoordinates,Original*%
%TF.FileFunction,Soldermask,Bot*%
%TF.FilePolarity,Negative*%
%FSLAX46Y46*%
G04 Gerber Fmt 4.6, Leading zero omitted, Abs format (unit mm)*
G04 Created by KiCad (PCBNEW 9.0.6) date 2025-12-27 11:49:52*
%MOMM*%
%LPD*%
G01*
G04 APERTURE LIST*
G04 Aperture macros list*
%AMRoundRect*
0 Rectangle with rounded corners*
0 $1 Rounding radius*
0 $2 $3 $4 $5 $6 $7 $8 $9 X,Y pos of 4 corners*
0 Add a 4 corners polygon primitive as box body*
4,1,4,$2,$3,$4,$5,$6,$7,$8,$9,$2,$3,0*
0 Add four circle primitives for the rounded corners*
1,1,$1+$1,$2,$3*
1,1,$1+$1,$4,$5*
1,1,$1+$1,$6,$7*
1,1,$1+$1,$8,$9*
0 Add four rect primitives between the rounded corners*
20,1,$1+$1,$2,$3,$4,$5,0*
20,1,$1+$1,$4,$5,$6,$7,0*
20,1,$1+$1,$6,$7,$8,$9,0*
20,1,$1+$1,$8,$9,$2,$3,0*%
G04 Aperture macros list end*
%ADD10O,3.000000X2.500000*%
%ADD11C,2.800000*%
%ADD12RoundRect,0.102000X-0.939800X-0.939800X0.939800X-0.939800X0.939800X0.939800X-0.939800X0.939800X0*%
%ADD13C,2.083600*%
%ADD14C,2.000000*%
%ADD15C,1.600000*%
%ADD16R,2.800000X2.800000*%
%ADD17RoundRect,0.102000X0.611000X-0.611000X0.611000X0.611000X-0.611000X0.611000X-0.611000X-0.611000X0*%
%ADD18C,1.426000*%
%ADD19C,1.500000*%
%ADD20O,2.300000X1.800000*%
%ADD21R,2.200000X1.700000*%
%ADD22RoundRect,0.243750X-0.456250X0.243750X-0.456250X-0.243750X0.456250X-0.243750X0.456250X0.243750X0*%
%ADD23RoundRect,0.250000X-0.312500X-0.625000X0.312500X-0.625000X0.312500X0.625000X-0.312500X0.625000X0*%
%ADD24RoundRect,0.250000X-0.625000X0.312500X-0.625000X-0.312500X0.625000X-0.312500X0.625000X0.312500X0*%
%ADD25RoundRect,0.250000X-0.300000X0.500000X-0.300000X-0.500000X0.300000X-0.500000X0.300000X0.500000X0*%
%ADD26RoundRect,0.250000X-0.650000X0.325000X-0.650000X-0.325000X0.650000X-0.325000X0.650000X0.325000X0*%
%ADD27R,1.600000X4.000000*%
%ADD28RoundRect,0.250000X0.625000X-0.312500X0.625000X0.312500X-0.625000X0.312500X-0.625000X-0.312500X0*%
%ADD29RoundRect,0.250000X0.312500X0.625000X-0.312500X0.625000X-0.312500X-0.625000X0.312500X-0.625000X0*%
G04 APERTURE END LIST*
D10*
%TO.C,BTN1*%
X209600000Y-96550000D03*
X197100000Y-96550000D03*
X209600000Y-91550000D03*
X197100000Y-91550000D03*
%TD*%
D11*
%TO.C,U2*%
X133600000Y-53050000D03*
X133600000Y-84050000D03*
X208600000Y-53050000D03*
X208600000Y-84050000D03*
D12*
X139100000Y-53050000D03*
D13*
X141640000Y-53050000D03*
X144180000Y-53050000D03*
X146720000Y-53050000D03*
X149260000Y-53050000D03*
X151800000Y-53050000D03*
X154340000Y-53050000D03*
X156880000Y-53050000D03*
X159420000Y-53050000D03*
X161960000Y-53050000D03*
X164500000Y-53050000D03*
X167040000Y-53050000D03*
X169580000Y-53050000D03*
X172120000Y-53050000D03*
X174660000Y-53050000D03*
X177200000Y-53050000D03*
%TD*%
D10*
%TO.C,BTN2*%
X166550000Y-96600000D03*
X154050000Y-96600000D03*
X166550000Y-91600000D03*
X154050000Y-91600000D03*
%TD*%
D14*
%TO.C,C6*%
X199000000Y-64250000D03*
X199000000Y-71750000D03*
%TD*%
D15*
%TO.C,R7*%
X202360000Y-78200000D03*
X192200000Y-78200000D03*
%TD*%
D16*
%TO.C,J2*%
X127000000Y-93205000D03*
D11*
X127000000Y-98285000D03*
%TD*%
D17*
%TO.C,VR1*%
X139150000Y-61490000D03*
D18*
X136610000Y-58950000D03*
X139150000Y-56410000D03*
%TD*%
D15*
%TO.C,R3*%
X139920000Y-91500000D03*
X150080000Y-91500000D03*
%TD*%
D14*
%TO.C,C9*%
X175000000Y-99000000D03*
X175000000Y-91500000D03*
%TD*%
D15*
%TO.C,R1*%
X149660000Y-71250000D03*
X139500000Y-71250000D03*
%TD*%
%TO.C,R5*%
X202360000Y-81300000D03*
X192200000Y-81300000D03*
%TD*%
D14*
%TO.C,C8*%
X188000000Y-99050000D03*
X188000000Y-91550000D03*
%TD*%
D19*
%TO.C,Y1*%
X170400000Y-83300000D03*
X175280000Y-83300000D03*
%TD*%
D20*
%TO.C,J1*%
X133650000Y-74450000D03*
D21*
X133650000Y-71910000D03*
%TD*%
D15*
%TO.C,R4*%
X202360000Y-84400000D03*
X192200000Y-84400000D03*
%TD*%
%TO.C,R2*%
X149660000Y-75000000D03*
X139500000Y-75000000D03*
%TD*%
D14*
%TO.C,C5*%
X147400000Y-97500000D03*
X139900000Y-97500000D03*
%TD*%
D22*
%TO.C,D3*%
X156950000Y-83862500D03*
X156950000Y-85737500D03*
%TD*%
D23*
%TO.C,C1*%
X174147500Y-77030000D03*
X177072500Y-77030000D03*
%TD*%
D22*
%TO.C,D2*%
X160650000Y-83900000D03*
X160650000Y-85775000D03*
%TD*%
D24*
%TO.C,R9*%
X153400000Y-77850000D03*
X153400000Y-80775000D03*
%TD*%
D25*
%TO.C,SW1*%
X205000000Y-63100000D03*
X205000000Y-72000000D03*
%TD*%
D26*
%TO.C,C3*%
X177000000Y-56025000D03*
X177000000Y-58975000D03*
%TD*%
D23*
%TO.C,C2*%
X168507500Y-77060000D03*
X171432500Y-77060000D03*
%TD*%
D27*
%TO.C,U1*%
X194400000Y-72690000D03*
X191860000Y-72700000D03*
X189320000Y-72700000D03*
X186780000Y-72700000D03*
X184240000Y-72700000D03*
X181700000Y-72700000D03*
X179160000Y-72700000D03*
X176620000Y-72700000D03*
X174080000Y-72700000D03*
X171540000Y-72700000D03*
X169000000Y-72700000D03*
X166460000Y-72700000D03*
X163920000Y-72700000D03*
X161380000Y-72700000D03*
X161380000Y-62690000D03*
X163920000Y-62690000D03*
X166460000Y-62690000D03*
X169000000Y-62690000D03*
X171540000Y-62690000D03*
X174080000Y-62690000D03*
X176620000Y-62690000D03*
X179160000Y-62690000D03*
X181700000Y-62690000D03*
X184240000Y-62690000D03*
X186780000Y-62690000D03*
X189320000Y-62690000D03*
X191860000Y-62690000D03*
X194400000Y-62690000D03*
%TD*%
D24*
%TO.C,R11*%
X156950000Y-77887500D03*
X156950000Y-80812500D03*
%TD*%
D28*
%TO.C,R8*%
X174000000Y-58962500D03*
X174000000Y-56037500D03*
%TD*%
D24*
%TO.C,R10*%
X160650000Y-77887500D03*
X160650000Y-80812500D03*
%TD*%
D22*
%TO.C,D1*%
X153400000Y-83862500D03*
X153400000Y-85737500D03*
%TD*%
D29*
%TO.C,R6*%
X174282500Y-79440000D03*
X171357500Y-79440000D03*
%TD*%
M02*
