%TF.GenerationSoftware,KiCad,Pcbnew,9.0.6*%
%TF.CreationDate,2025-12-27T11:49:52+07:00*%
%TF.ProjectId,pcd_adc,7063645f-6164-4632-9e6b-696361645f70,rev?*%
%TF.SameCoordinates,Original*%
%TF.FileFunction,Legend,Top*%
%TF.FilePolarity,Positive*%
%FSLAX46Y46*%
G04 Gerber Fmt 4.6, Leading zero omitted, Abs format (unit mm)*
G04 Created by KiCad (PCBNEW 9.0.6) date 2025-12-27 11:49:52*
%MOMM*%
%LPD*%
G01*
G04 APERTURE LIST*
%ADD10C,0.100000*%
%ADD11C,0.050000*%
%ADD12C,0.150000*%
%ADD13C,0.120000*%
%ADD14C,0.127000*%
%ADD15C,0.200000*%
G04 APERTURE END LIST*
D10*
X221350000Y-50300000D02*
X211350000Y-40300000D01*
X130850000Y-100300000D02*
X120850000Y-110300000D01*
X211350000Y-50300000D02*
X221350000Y-40300000D01*
X211350000Y-100300000D02*
X221350000Y-110300000D01*
D11*
X120850000Y-100300000D02*
X130850000Y-100300000D01*
X130850000Y-110300000D01*
X120850000Y-110300000D01*
X120850000Y-100300000D01*
D10*
X130850000Y-110300000D02*
X120850000Y-100300000D01*
D11*
X130850000Y-50300000D02*
X211350000Y-50300000D01*
X211350000Y-100300000D01*
X130850000Y-100300000D01*
X130850000Y-50300000D01*
X211350000Y-40300000D02*
X221350000Y-40300000D01*
X221350000Y-50300000D01*
X211350000Y-50300000D01*
X211350000Y-40300000D01*
D10*
X130850000Y-40300000D02*
X120850000Y-50300000D01*
X130850000Y-50300000D02*
X120850000Y-40300000D01*
D11*
X120850000Y-40300000D02*
X130850000Y-40300000D01*
X130850000Y-50300000D01*
X120850000Y-50300000D01*
X120850000Y-40300000D01*
D10*
X211350000Y-110300000D02*
X221350000Y-100300000D01*
D11*
X211350000Y-100300000D02*
X221350000Y-100300000D01*
X221350000Y-110300000D01*
X211350000Y-110300000D01*
X211350000Y-100300000D01*
D12*
X201940476Y-101141009D02*
X202083333Y-101188628D01*
X202083333Y-101188628D02*
X202130952Y-101236247D01*
X202130952Y-101236247D02*
X202178571Y-101331485D01*
X202178571Y-101331485D02*
X202178571Y-101474342D01*
X202178571Y-101474342D02*
X202130952Y-101569580D01*
X202130952Y-101569580D02*
X202083333Y-101617200D01*
X202083333Y-101617200D02*
X201988095Y-101664819D01*
X201988095Y-101664819D02*
X201607143Y-101664819D01*
X201607143Y-101664819D02*
X201607143Y-100664819D01*
X201607143Y-100664819D02*
X201940476Y-100664819D01*
X201940476Y-100664819D02*
X202035714Y-100712438D01*
X202035714Y-100712438D02*
X202083333Y-100760057D01*
X202083333Y-100760057D02*
X202130952Y-100855295D01*
X202130952Y-100855295D02*
X202130952Y-100950533D01*
X202130952Y-100950533D02*
X202083333Y-101045771D01*
X202083333Y-101045771D02*
X202035714Y-101093390D01*
X202035714Y-101093390D02*
X201940476Y-101141009D01*
X201940476Y-101141009D02*
X201607143Y-101141009D01*
X202464286Y-100664819D02*
X203035714Y-100664819D01*
X202750000Y-101664819D02*
X202750000Y-100664819D01*
X203369048Y-101664819D02*
X203369048Y-100664819D01*
X203369048Y-100664819D02*
X203940476Y-101664819D01*
X203940476Y-101664819D02*
X203940476Y-100664819D01*
X204940476Y-101664819D02*
X204369048Y-101664819D01*
X204654762Y-101664819D02*
X204654762Y-100664819D01*
X204654762Y-100664819D02*
X204559524Y-100807676D01*
X204559524Y-100807676D02*
X204464286Y-100902914D01*
X204464286Y-100902914D02*
X204369048Y-100950533D01*
X133263095Y-48119819D02*
X133263095Y-48929342D01*
X133263095Y-48929342D02*
X133310714Y-49024580D01*
X133310714Y-49024580D02*
X133358333Y-49072200D01*
X133358333Y-49072200D02*
X133453571Y-49119819D01*
X133453571Y-49119819D02*
X133644047Y-49119819D01*
X133644047Y-49119819D02*
X133739285Y-49072200D01*
X133739285Y-49072200D02*
X133786904Y-49024580D01*
X133786904Y-49024580D02*
X133834523Y-48929342D01*
X133834523Y-48929342D02*
X133834523Y-48119819D01*
X134263095Y-48215057D02*
X134310714Y-48167438D01*
X134310714Y-48167438D02*
X134405952Y-48119819D01*
X134405952Y-48119819D02*
X134644047Y-48119819D01*
X134644047Y-48119819D02*
X134739285Y-48167438D01*
X134739285Y-48167438D02*
X134786904Y-48215057D01*
X134786904Y-48215057D02*
X134834523Y-48310295D01*
X134834523Y-48310295D02*
X134834523Y-48405533D01*
X134834523Y-48405533D02*
X134786904Y-48548390D01*
X134786904Y-48548390D02*
X134215476Y-49119819D01*
X134215476Y-49119819D02*
X134834523Y-49119819D01*
X158890476Y-101191009D02*
X159033333Y-101238628D01*
X159033333Y-101238628D02*
X159080952Y-101286247D01*
X159080952Y-101286247D02*
X159128571Y-101381485D01*
X159128571Y-101381485D02*
X159128571Y-101524342D01*
X159128571Y-101524342D02*
X159080952Y-101619580D01*
X159080952Y-101619580D02*
X159033333Y-101667200D01*
X159033333Y-101667200D02*
X158938095Y-101714819D01*
X158938095Y-101714819D02*
X158557143Y-101714819D01*
X158557143Y-101714819D02*
X158557143Y-100714819D01*
X158557143Y-100714819D02*
X158890476Y-100714819D01*
X158890476Y-100714819D02*
X158985714Y-100762438D01*
X158985714Y-100762438D02*
X159033333Y-100810057D01*
X159033333Y-100810057D02*
X159080952Y-100905295D01*
X159080952Y-100905295D02*
X159080952Y-101000533D01*
X159080952Y-101000533D02*
X159033333Y-101095771D01*
X159033333Y-101095771D02*
X158985714Y-101143390D01*
X158985714Y-101143390D02*
X158890476Y-101191009D01*
X158890476Y-101191009D02*
X158557143Y-101191009D01*
X159414286Y-100714819D02*
X159985714Y-100714819D01*
X159700000Y-101714819D02*
X159700000Y-100714819D01*
X160319048Y-101714819D02*
X160319048Y-100714819D01*
X160319048Y-100714819D02*
X160890476Y-101714819D01*
X160890476Y-101714819D02*
X160890476Y-100714819D01*
X161319048Y-100810057D02*
X161366667Y-100762438D01*
X161366667Y-100762438D02*
X161461905Y-100714819D01*
X161461905Y-100714819D02*
X161700000Y-100714819D01*
X161700000Y-100714819D02*
X161795238Y-100762438D01*
X161795238Y-100762438D02*
X161842857Y-100810057D01*
X161842857Y-100810057D02*
X161890476Y-100905295D01*
X161890476Y-100905295D02*
X161890476Y-101000533D01*
X161890476Y-101000533D02*
X161842857Y-101143390D01*
X161842857Y-101143390D02*
X161271429Y-101714819D01*
X161271429Y-101714819D02*
X161890476Y-101714819D01*
X199359580Y-68166666D02*
X199407200Y-68214285D01*
X199407200Y-68214285D02*
X199454819Y-68357142D01*
X199454819Y-68357142D02*
X199454819Y-68452380D01*
X199454819Y-68452380D02*
X199407200Y-68595237D01*
X199407200Y-68595237D02*
X199311961Y-68690475D01*
X199311961Y-68690475D02*
X199216723Y-68738094D01*
X199216723Y-68738094D02*
X199026247Y-68785713D01*
X199026247Y-68785713D02*
X198883390Y-68785713D01*
X198883390Y-68785713D02*
X198692914Y-68738094D01*
X198692914Y-68738094D02*
X198597676Y-68690475D01*
X198597676Y-68690475D02*
X198502438Y-68595237D01*
X198502438Y-68595237D02*
X198454819Y-68452380D01*
X198454819Y-68452380D02*
X198454819Y-68357142D01*
X198454819Y-68357142D02*
X198502438Y-68214285D01*
X198502438Y-68214285D02*
X198550057Y-68166666D01*
X198454819Y-67309523D02*
X198454819Y-67499999D01*
X198454819Y-67499999D02*
X198502438Y-67595237D01*
X198502438Y-67595237D02*
X198550057Y-67642856D01*
X198550057Y-67642856D02*
X198692914Y-67738094D01*
X198692914Y-67738094D02*
X198883390Y-67785713D01*
X198883390Y-67785713D02*
X199264342Y-67785713D01*
X199264342Y-67785713D02*
X199359580Y-67738094D01*
X199359580Y-67738094D02*
X199407200Y-67690475D01*
X199407200Y-67690475D02*
X199454819Y-67595237D01*
X199454819Y-67595237D02*
X199454819Y-67404761D01*
X199454819Y-67404761D02*
X199407200Y-67309523D01*
X199407200Y-67309523D02*
X199359580Y-67261904D01*
X199359580Y-67261904D02*
X199264342Y-67214285D01*
X199264342Y-67214285D02*
X199026247Y-67214285D01*
X199026247Y-67214285D02*
X198931009Y-67261904D01*
X198931009Y-67261904D02*
X198883390Y-67309523D01*
X198883390Y-67309523D02*
X198835771Y-67404761D01*
X198835771Y-67404761D02*
X198835771Y-67595237D01*
X198835771Y-67595237D02*
X198883390Y-67690475D01*
X198883390Y-67690475D02*
X198931009Y-67738094D01*
X198931009Y-67738094D02*
X199026247Y-67785713D01*
X197113333Y-78654819D02*
X196780000Y-78178628D01*
X196541905Y-78654819D02*
X196541905Y-77654819D01*
X196541905Y-77654819D02*
X196922857Y-77654819D01*
X196922857Y-77654819D02*
X197018095Y-77702438D01*
X197018095Y-77702438D02*
X197065714Y-77750057D01*
X197065714Y-77750057D02*
X197113333Y-77845295D01*
X197113333Y-77845295D02*
X197113333Y-77988152D01*
X197113333Y-77988152D02*
X197065714Y-78083390D01*
X197065714Y-78083390D02*
X197018095Y-78131009D01*
X197018095Y-78131009D02*
X196922857Y-78178628D01*
X196922857Y-78178628D02*
X196541905Y-78178628D01*
X197446667Y-77654819D02*
X198113333Y-77654819D01*
X198113333Y-77654819D02*
X197684762Y-78654819D01*
X126666666Y-89009819D02*
X126666666Y-89724104D01*
X126666666Y-89724104D02*
X126619047Y-89866961D01*
X126619047Y-89866961D02*
X126523809Y-89962200D01*
X126523809Y-89962200D02*
X126380952Y-90009819D01*
X126380952Y-90009819D02*
X126285714Y-90009819D01*
X127095238Y-89105057D02*
X127142857Y-89057438D01*
X127142857Y-89057438D02*
X127238095Y-89009819D01*
X127238095Y-89009819D02*
X127476190Y-89009819D01*
X127476190Y-89009819D02*
X127571428Y-89057438D01*
X127571428Y-89057438D02*
X127619047Y-89105057D01*
X127619047Y-89105057D02*
X127666666Y-89200295D01*
X127666666Y-89200295D02*
X127666666Y-89295533D01*
X127666666Y-89295533D02*
X127619047Y-89438390D01*
X127619047Y-89438390D02*
X127047619Y-90009819D01*
X127047619Y-90009819D02*
X127666666Y-90009819D01*
X138603338Y-60263132D02*
X139606094Y-59928880D01*
X139606094Y-59928880D02*
X138603338Y-59594628D01*
X139606094Y-58687373D02*
X139128591Y-59021625D01*
X139606094Y-59260376D02*
X138603338Y-59260376D01*
X138603338Y-59260376D02*
X138603338Y-58878374D01*
X138603338Y-58878374D02*
X138651088Y-58782873D01*
X138651088Y-58782873D02*
X138698838Y-58735123D01*
X138698838Y-58735123D02*
X138794339Y-58687373D01*
X138794339Y-58687373D02*
X138937590Y-58687373D01*
X138937590Y-58687373D02*
X139033090Y-58735123D01*
X139033090Y-58735123D02*
X139080841Y-58782873D01*
X139080841Y-58782873D02*
X139128591Y-58878374D01*
X139128591Y-58878374D02*
X139128591Y-59260376D01*
X139606094Y-57732367D02*
X139606094Y-58305370D01*
X139606094Y-58018869D02*
X138603338Y-58018869D01*
X138603338Y-58018869D02*
X138746589Y-58114369D01*
X138746589Y-58114369D02*
X138842089Y-58209870D01*
X138842089Y-58209870D02*
X138889840Y-58305370D01*
X144833333Y-91954819D02*
X144500000Y-91478628D01*
X144261905Y-91954819D02*
X144261905Y-90954819D01*
X144261905Y-90954819D02*
X144642857Y-90954819D01*
X144642857Y-90954819D02*
X144738095Y-91002438D01*
X144738095Y-91002438D02*
X144785714Y-91050057D01*
X144785714Y-91050057D02*
X144833333Y-91145295D01*
X144833333Y-91145295D02*
X144833333Y-91288152D01*
X144833333Y-91288152D02*
X144785714Y-91383390D01*
X144785714Y-91383390D02*
X144738095Y-91431009D01*
X144738095Y-91431009D02*
X144642857Y-91478628D01*
X144642857Y-91478628D02*
X144261905Y-91478628D01*
X145166667Y-90954819D02*
X145785714Y-90954819D01*
X145785714Y-90954819D02*
X145452381Y-91335771D01*
X145452381Y-91335771D02*
X145595238Y-91335771D01*
X145595238Y-91335771D02*
X145690476Y-91383390D01*
X145690476Y-91383390D02*
X145738095Y-91431009D01*
X145738095Y-91431009D02*
X145785714Y-91526247D01*
X145785714Y-91526247D02*
X145785714Y-91764342D01*
X145785714Y-91764342D02*
X145738095Y-91859580D01*
X145738095Y-91859580D02*
X145690476Y-91907200D01*
X145690476Y-91907200D02*
X145595238Y-91954819D01*
X145595238Y-91954819D02*
X145309524Y-91954819D01*
X145309524Y-91954819D02*
X145214286Y-91907200D01*
X145214286Y-91907200D02*
X145166667Y-91859580D01*
X175359580Y-95416666D02*
X175407200Y-95464285D01*
X175407200Y-95464285D02*
X175454819Y-95607142D01*
X175454819Y-95607142D02*
X175454819Y-95702380D01*
X175454819Y-95702380D02*
X175407200Y-95845237D01*
X175407200Y-95845237D02*
X175311961Y-95940475D01*
X175311961Y-95940475D02*
X175216723Y-95988094D01*
X175216723Y-95988094D02*
X175026247Y-96035713D01*
X175026247Y-96035713D02*
X174883390Y-96035713D01*
X174883390Y-96035713D02*
X174692914Y-95988094D01*
X174692914Y-95988094D02*
X174597676Y-95940475D01*
X174597676Y-95940475D02*
X174502438Y-95845237D01*
X174502438Y-95845237D02*
X174454819Y-95702380D01*
X174454819Y-95702380D02*
X174454819Y-95607142D01*
X174454819Y-95607142D02*
X174502438Y-95464285D01*
X174502438Y-95464285D02*
X174550057Y-95416666D01*
X175454819Y-94940475D02*
X175454819Y-94749999D01*
X175454819Y-94749999D02*
X175407200Y-94654761D01*
X175407200Y-94654761D02*
X175359580Y-94607142D01*
X175359580Y-94607142D02*
X175216723Y-94511904D01*
X175216723Y-94511904D02*
X175026247Y-94464285D01*
X175026247Y-94464285D02*
X174645295Y-94464285D01*
X174645295Y-94464285D02*
X174550057Y-94511904D01*
X174550057Y-94511904D02*
X174502438Y-94559523D01*
X174502438Y-94559523D02*
X174454819Y-94654761D01*
X174454819Y-94654761D02*
X174454819Y-94845237D01*
X174454819Y-94845237D02*
X174502438Y-94940475D01*
X174502438Y-94940475D02*
X174550057Y-94988094D01*
X174550057Y-94988094D02*
X174645295Y-95035713D01*
X174645295Y-95035713D02*
X174883390Y-95035713D01*
X174883390Y-95035713D02*
X174978628Y-94988094D01*
X174978628Y-94988094D02*
X175026247Y-94940475D01*
X175026247Y-94940475D02*
X175073866Y-94845237D01*
X175073866Y-94845237D02*
X175073866Y-94654761D01*
X175073866Y-94654761D02*
X175026247Y-94559523D01*
X175026247Y-94559523D02*
X174978628Y-94511904D01*
X174978628Y-94511904D02*
X174883390Y-94464285D01*
X144413333Y-71704819D02*
X144080000Y-71228628D01*
X143841905Y-71704819D02*
X143841905Y-70704819D01*
X143841905Y-70704819D02*
X144222857Y-70704819D01*
X144222857Y-70704819D02*
X144318095Y-70752438D01*
X144318095Y-70752438D02*
X144365714Y-70800057D01*
X144365714Y-70800057D02*
X144413333Y-70895295D01*
X144413333Y-70895295D02*
X144413333Y-71038152D01*
X144413333Y-71038152D02*
X144365714Y-71133390D01*
X144365714Y-71133390D02*
X144318095Y-71181009D01*
X144318095Y-71181009D02*
X144222857Y-71228628D01*
X144222857Y-71228628D02*
X143841905Y-71228628D01*
X145365714Y-71704819D02*
X144794286Y-71704819D01*
X145080000Y-71704819D02*
X145080000Y-70704819D01*
X145080000Y-70704819D02*
X144984762Y-70847676D01*
X144984762Y-70847676D02*
X144889524Y-70942914D01*
X144889524Y-70942914D02*
X144794286Y-70990533D01*
X197113333Y-81754819D02*
X196780000Y-81278628D01*
X196541905Y-81754819D02*
X196541905Y-80754819D01*
X196541905Y-80754819D02*
X196922857Y-80754819D01*
X196922857Y-80754819D02*
X197018095Y-80802438D01*
X197018095Y-80802438D02*
X197065714Y-80850057D01*
X197065714Y-80850057D02*
X197113333Y-80945295D01*
X197113333Y-80945295D02*
X197113333Y-81088152D01*
X197113333Y-81088152D02*
X197065714Y-81183390D01*
X197065714Y-81183390D02*
X197018095Y-81231009D01*
X197018095Y-81231009D02*
X196922857Y-81278628D01*
X196922857Y-81278628D02*
X196541905Y-81278628D01*
X198018095Y-80754819D02*
X197541905Y-80754819D01*
X197541905Y-80754819D02*
X197494286Y-81231009D01*
X197494286Y-81231009D02*
X197541905Y-81183390D01*
X197541905Y-81183390D02*
X197637143Y-81135771D01*
X197637143Y-81135771D02*
X197875238Y-81135771D01*
X197875238Y-81135771D02*
X197970476Y-81183390D01*
X197970476Y-81183390D02*
X198018095Y-81231009D01*
X198018095Y-81231009D02*
X198065714Y-81326247D01*
X198065714Y-81326247D02*
X198065714Y-81564342D01*
X198065714Y-81564342D02*
X198018095Y-81659580D01*
X198018095Y-81659580D02*
X197970476Y-81707200D01*
X197970476Y-81707200D02*
X197875238Y-81754819D01*
X197875238Y-81754819D02*
X197637143Y-81754819D01*
X197637143Y-81754819D02*
X197541905Y-81707200D01*
X197541905Y-81707200D02*
X197494286Y-81659580D01*
X188359580Y-95466666D02*
X188407200Y-95514285D01*
X188407200Y-95514285D02*
X188454819Y-95657142D01*
X188454819Y-95657142D02*
X188454819Y-95752380D01*
X188454819Y-95752380D02*
X188407200Y-95895237D01*
X188407200Y-95895237D02*
X188311961Y-95990475D01*
X188311961Y-95990475D02*
X188216723Y-96038094D01*
X188216723Y-96038094D02*
X188026247Y-96085713D01*
X188026247Y-96085713D02*
X187883390Y-96085713D01*
X187883390Y-96085713D02*
X187692914Y-96038094D01*
X187692914Y-96038094D02*
X187597676Y-95990475D01*
X187597676Y-95990475D02*
X187502438Y-95895237D01*
X187502438Y-95895237D02*
X187454819Y-95752380D01*
X187454819Y-95752380D02*
X187454819Y-95657142D01*
X187454819Y-95657142D02*
X187502438Y-95514285D01*
X187502438Y-95514285D02*
X187550057Y-95466666D01*
X187883390Y-94895237D02*
X187835771Y-94990475D01*
X187835771Y-94990475D02*
X187788152Y-95038094D01*
X187788152Y-95038094D02*
X187692914Y-95085713D01*
X187692914Y-95085713D02*
X187645295Y-95085713D01*
X187645295Y-95085713D02*
X187550057Y-95038094D01*
X187550057Y-95038094D02*
X187502438Y-94990475D01*
X187502438Y-94990475D02*
X187454819Y-94895237D01*
X187454819Y-94895237D02*
X187454819Y-94704761D01*
X187454819Y-94704761D02*
X187502438Y-94609523D01*
X187502438Y-94609523D02*
X187550057Y-94561904D01*
X187550057Y-94561904D02*
X187645295Y-94514285D01*
X187645295Y-94514285D02*
X187692914Y-94514285D01*
X187692914Y-94514285D02*
X187788152Y-94561904D01*
X187788152Y-94561904D02*
X187835771Y-94609523D01*
X187835771Y-94609523D02*
X187883390Y-94704761D01*
X187883390Y-94704761D02*
X187883390Y-94895237D01*
X187883390Y-94895237D02*
X187931009Y-94990475D01*
X187931009Y-94990475D02*
X187978628Y-95038094D01*
X187978628Y-95038094D02*
X188073866Y-95085713D01*
X188073866Y-95085713D02*
X188264342Y-95085713D01*
X188264342Y-95085713D02*
X188359580Y-95038094D01*
X188359580Y-95038094D02*
X188407200Y-94990475D01*
X188407200Y-94990475D02*
X188454819Y-94895237D01*
X188454819Y-94895237D02*
X188454819Y-94704761D01*
X188454819Y-94704761D02*
X188407200Y-94609523D01*
X188407200Y-94609523D02*
X188359580Y-94561904D01*
X188359580Y-94561904D02*
X188264342Y-94514285D01*
X188264342Y-94514285D02*
X188073866Y-94514285D01*
X188073866Y-94514285D02*
X187978628Y-94561904D01*
X187978628Y-94561904D02*
X187931009Y-94609523D01*
X187931009Y-94609523D02*
X187883390Y-94704761D01*
X172363809Y-83278628D02*
X172363809Y-83754819D01*
X172030476Y-82754819D02*
X172363809Y-83278628D01*
X172363809Y-83278628D02*
X172697142Y-82754819D01*
X173554285Y-83754819D02*
X172982857Y-83754819D01*
X173268571Y-83754819D02*
X173268571Y-82754819D01*
X173268571Y-82754819D02*
X173173333Y-82897676D01*
X173173333Y-82897676D02*
X173078095Y-82992914D01*
X173078095Y-82992914D02*
X172982857Y-83040533D01*
X128931666Y-76174819D02*
X128931666Y-76889104D01*
X128931666Y-76889104D02*
X128884047Y-77031961D01*
X128884047Y-77031961D02*
X128788809Y-77127200D01*
X128788809Y-77127200D02*
X128645952Y-77174819D01*
X128645952Y-77174819D02*
X128550714Y-77174819D01*
X129931666Y-77174819D02*
X129360238Y-77174819D01*
X129645952Y-77174819D02*
X129645952Y-76174819D01*
X129645952Y-76174819D02*
X129550714Y-76317676D01*
X129550714Y-76317676D02*
X129455476Y-76412914D01*
X129455476Y-76412914D02*
X129360238Y-76460533D01*
X197113333Y-84854819D02*
X196780000Y-84378628D01*
X196541905Y-84854819D02*
X196541905Y-83854819D01*
X196541905Y-83854819D02*
X196922857Y-83854819D01*
X196922857Y-83854819D02*
X197018095Y-83902438D01*
X197018095Y-83902438D02*
X197065714Y-83950057D01*
X197065714Y-83950057D02*
X197113333Y-84045295D01*
X197113333Y-84045295D02*
X197113333Y-84188152D01*
X197113333Y-84188152D02*
X197065714Y-84283390D01*
X197065714Y-84283390D02*
X197018095Y-84331009D01*
X197018095Y-84331009D02*
X196922857Y-84378628D01*
X196922857Y-84378628D02*
X196541905Y-84378628D01*
X197970476Y-84188152D02*
X197970476Y-84854819D01*
X197732381Y-83807200D02*
X197494286Y-84521485D01*
X197494286Y-84521485D02*
X198113333Y-84521485D01*
X144413333Y-75454819D02*
X144080000Y-74978628D01*
X143841905Y-75454819D02*
X143841905Y-74454819D01*
X143841905Y-74454819D02*
X144222857Y-74454819D01*
X144222857Y-74454819D02*
X144318095Y-74502438D01*
X144318095Y-74502438D02*
X144365714Y-74550057D01*
X144365714Y-74550057D02*
X144413333Y-74645295D01*
X144413333Y-74645295D02*
X144413333Y-74788152D01*
X144413333Y-74788152D02*
X144365714Y-74883390D01*
X144365714Y-74883390D02*
X144318095Y-74931009D01*
X144318095Y-74931009D02*
X144222857Y-74978628D01*
X144222857Y-74978628D02*
X143841905Y-74978628D01*
X144794286Y-74550057D02*
X144841905Y-74502438D01*
X144841905Y-74502438D02*
X144937143Y-74454819D01*
X144937143Y-74454819D02*
X145175238Y-74454819D01*
X145175238Y-74454819D02*
X145270476Y-74502438D01*
X145270476Y-74502438D02*
X145318095Y-74550057D01*
X145318095Y-74550057D02*
X145365714Y-74645295D01*
X145365714Y-74645295D02*
X145365714Y-74740533D01*
X145365714Y-74740533D02*
X145318095Y-74883390D01*
X145318095Y-74883390D02*
X144746667Y-75454819D01*
X144746667Y-75454819D02*
X145365714Y-75454819D01*
X143483333Y-97859580D02*
X143435714Y-97907200D01*
X143435714Y-97907200D02*
X143292857Y-97954819D01*
X143292857Y-97954819D02*
X143197619Y-97954819D01*
X143197619Y-97954819D02*
X143054762Y-97907200D01*
X143054762Y-97907200D02*
X142959524Y-97811961D01*
X142959524Y-97811961D02*
X142911905Y-97716723D01*
X142911905Y-97716723D02*
X142864286Y-97526247D01*
X142864286Y-97526247D02*
X142864286Y-97383390D01*
X142864286Y-97383390D02*
X142911905Y-97192914D01*
X142911905Y-97192914D02*
X142959524Y-97097676D01*
X142959524Y-97097676D02*
X143054762Y-97002438D01*
X143054762Y-97002438D02*
X143197619Y-96954819D01*
X143197619Y-96954819D02*
X143292857Y-96954819D01*
X143292857Y-96954819D02*
X143435714Y-97002438D01*
X143435714Y-97002438D02*
X143483333Y-97050057D01*
X144388095Y-96954819D02*
X143911905Y-96954819D01*
X143911905Y-96954819D02*
X143864286Y-97431009D01*
X143864286Y-97431009D02*
X143911905Y-97383390D01*
X143911905Y-97383390D02*
X144007143Y-97335771D01*
X144007143Y-97335771D02*
X144245238Y-97335771D01*
X144245238Y-97335771D02*
X144340476Y-97383390D01*
X144340476Y-97383390D02*
X144388095Y-97431009D01*
X144388095Y-97431009D02*
X144435714Y-97526247D01*
X144435714Y-97526247D02*
X144435714Y-97764342D01*
X144435714Y-97764342D02*
X144388095Y-97859580D01*
X144388095Y-97859580D02*
X144340476Y-97907200D01*
X144340476Y-97907200D02*
X144245238Y-97954819D01*
X144245238Y-97954819D02*
X144007143Y-97954819D01*
X144007143Y-97954819D02*
X143911905Y-97907200D01*
X143911905Y-97907200D02*
X143864286Y-97859580D01*
D13*
%TO.C,BTN1*%
X197200000Y-87900000D02*
X209500000Y-87900000D01*
X197200000Y-90020000D02*
X197200000Y-87900000D01*
X197200000Y-95020000D02*
X197200000Y-93080000D01*
X197200000Y-100200000D02*
X197200000Y-98080000D01*
X209500000Y-87900000D02*
X209500000Y-90020000D01*
X209500000Y-93080000D02*
X209500000Y-95020000D01*
X209500000Y-98080000D02*
X209500000Y-100200000D01*
X209500000Y-100200000D02*
X197200000Y-100200000D01*
X207829050Y-94010000D02*
G75*
G02*
X198670950Y-94010000I-4579050J0D01*
G01*
X198670950Y-94010000D02*
G75*
G02*
X207829050Y-94010000I4579050J0D01*
G01*
D14*
%TO.C,U2*%
X131100000Y-50550000D02*
X211100000Y-50550000D01*
X131100000Y-86550000D02*
X131100000Y-50550000D01*
X211100000Y-50550000D02*
X211100000Y-86550000D01*
X211100000Y-86550000D02*
X131100000Y-86550000D01*
D15*
X130450000Y-53050000D02*
G75*
G02*
X130250000Y-53050000I-100000J0D01*
G01*
X130250000Y-53050000D02*
G75*
G02*
X130450000Y-53050000I100000J0D01*
G01*
D13*
%TO.C,BTN2*%
X154150000Y-87950000D02*
X166450000Y-87950000D01*
X154150000Y-90070000D02*
X154150000Y-87950000D01*
X154150000Y-95070000D02*
X154150000Y-93130000D01*
X154150000Y-100250000D02*
X154150000Y-98130000D01*
X166450000Y-87950000D02*
X166450000Y-90070000D01*
X166450000Y-93130000D02*
X166450000Y-95070000D01*
X166450000Y-98130000D02*
X166450000Y-100250000D01*
X166450000Y-100250000D02*
X154150000Y-100250000D01*
X164779050Y-94060000D02*
G75*
G02*
X155620950Y-94060000I-4579050J0D01*
G01*
X155620950Y-94060000D02*
G75*
G02*
X164779050Y-94060000I4579050J0D01*
G01*
%TO.C,C6*%
X196380000Y-64130000D02*
X197766000Y-64130000D01*
X196380000Y-71870000D02*
X196380000Y-64130000D01*
X197766000Y-71870000D02*
X196380000Y-71870000D01*
X200234000Y-64130000D02*
X201620000Y-64130000D01*
X201620000Y-64130000D02*
X201620000Y-71870000D01*
X201620000Y-71870000D02*
X200234000Y-71870000D01*
%TO.C,R7*%
X193240000Y-78200000D02*
X194010000Y-78200000D01*
X201320000Y-78200000D02*
X200550000Y-78200000D01*
X200550000Y-79570000D02*
X194010000Y-79570000D01*
X194010000Y-76830000D01*
X200550000Y-76830000D01*
X200550000Y-79570000D01*
%TO.C,J2*%
X123715000Y-90555000D02*
X127000000Y-90555000D01*
X123715000Y-93205000D02*
X123715000Y-90555000D01*
X123715000Y-95745000D02*
X123715000Y-100935000D01*
X123715000Y-95745000D02*
X130285000Y-95745000D01*
X123715000Y-100935000D02*
X130285000Y-100935000D01*
X130285000Y-95745000D02*
X130285000Y-100935000D01*
D14*
%TO.C,VR1*%
X135680000Y-55650000D02*
X137845000Y-55650000D01*
X135680000Y-62250000D02*
X135680000Y-55650000D01*
X137845000Y-62250000D02*
X135680000Y-62250000D01*
X140385000Y-55650000D02*
X142670000Y-55650000D01*
X142670000Y-62250000D02*
X140385000Y-62250000D01*
X142680000Y-55650000D02*
X142680000Y-62250000D01*
D15*
X139250000Y-63014000D02*
G75*
G02*
X139050000Y-63014000I-100000J0D01*
G01*
X139050000Y-63014000D02*
G75*
G02*
X139250000Y-63014000I100000J0D01*
G01*
D13*
%TO.C,R3*%
X140960000Y-91500000D02*
X141730000Y-91500000D01*
X149040000Y-91500000D02*
X148270001Y-91500000D01*
X148270000Y-92870000D02*
X141730000Y-92870000D01*
X141730000Y-90130000D01*
X148270000Y-90130000D01*
X148270000Y-92870000D01*
%TO.C,C9*%
X172380000Y-91380000D02*
X173766000Y-91380000D01*
X172380000Y-99120000D02*
X172380000Y-91380000D01*
X173766000Y-99120000D02*
X172380000Y-99120000D01*
X176234000Y-91380000D02*
X177620000Y-91380000D01*
X177620000Y-91380000D02*
X177620000Y-99120000D01*
X177620000Y-99120000D02*
X176234000Y-99120000D01*
%TO.C,R1*%
X140540000Y-71250000D02*
X141310000Y-71250000D01*
X148620000Y-71250000D02*
X147850000Y-71250000D01*
X147850000Y-72620000D02*
X141310000Y-72620000D01*
X141310000Y-69880000D01*
X147850000Y-69880000D01*
X147850000Y-72620000D01*
%TO.C,R5*%
X193240000Y-81300000D02*
X194010000Y-81300000D01*
X201320000Y-81300000D02*
X200550000Y-81300000D01*
X200550000Y-82670000D02*
X194010000Y-82670000D01*
X194010000Y-79930000D01*
X200550000Y-79930000D01*
X200550000Y-82670000D01*
%TO.C,C8*%
X185380000Y-91430000D02*
X186766000Y-91430000D01*
X185380000Y-99170000D02*
X185380000Y-91430000D01*
X186766000Y-99170000D02*
X185380000Y-99170000D01*
X189234000Y-91430000D02*
X190620000Y-91430000D01*
X190620000Y-91430000D02*
X190620000Y-99170000D01*
X190620000Y-99170000D02*
X189234000Y-99170000D01*
%TO.C,Y1*%
X169640000Y-80865000D02*
X176040000Y-80865000D01*
X176040000Y-85735000D02*
X169640000Y-85735000D01*
X169640000Y-85735000D02*
G75*
G02*
X169640000Y-80865000I0J2435000D01*
G01*
X176040000Y-80865000D02*
G75*
G02*
X176040000Y-85735000I0J-2435000D01*
G01*
%TO.C,J1*%
X123500000Y-71480000D02*
X129500000Y-71480000D01*
X123500000Y-72340000D02*
X123500000Y-71480000D01*
X129500000Y-70530000D02*
X129500000Y-75830000D01*
X129500000Y-72340000D02*
X123500000Y-72340000D01*
X129500000Y-75830000D02*
X132260000Y-75830000D01*
X132260000Y-70530000D02*
X129500000Y-70530000D01*
X132260000Y-73180000D02*
X129500000Y-73180000D01*
X132260000Y-75830000D02*
X132260000Y-70530000D01*
X132490000Y-74020000D02*
X132260000Y-74020000D01*
X132490000Y-74880000D02*
X132260000Y-74880000D01*
X132572642Y-71480000D02*
X132260000Y-71480000D01*
X132572642Y-72340000D02*
X132260000Y-72340000D01*
X134920000Y-74450000D02*
X134920000Y-75720000D01*
X134920000Y-75720000D02*
X133650000Y-75720000D01*
X129500000Y-74880000D02*
X123500000Y-74880000D01*
X123500000Y-74020000D01*
X129500000Y-74020000D01*
X129500000Y-74880000D01*
G36*
X129500000Y-74880000D02*
G01*
X123500000Y-74880000D01*
X123500000Y-74020000D01*
X129500000Y-74020000D01*
X129500000Y-74880000D01*
G37*
%TO.C,R4*%
X193240000Y-84400000D02*
X194009999Y-84400000D01*
X201320000Y-84400000D02*
X200550000Y-84400000D01*
X200550000Y-85770000D02*
X194010000Y-85770000D01*
X194010000Y-83030000D01*
X200550000Y-83030000D01*
X200550000Y-85770000D01*
%TO.C,R2*%
X140540000Y-75000000D02*
X141310000Y-75000000D01*
X148620000Y-75000000D02*
X147850000Y-75000000D01*
X147850000Y-76370000D02*
X141310000Y-76370000D01*
X141310000Y-73630000D01*
X147850000Y-73630000D01*
X147850000Y-76370000D01*
%TO.C,C5*%
X139780000Y-94880000D02*
X147520000Y-94880000D01*
X139780000Y-96266000D02*
X139780000Y-94880000D01*
X139780000Y-100120000D02*
X139780000Y-98734000D01*
X147520000Y-94880000D02*
X147520000Y-96266000D01*
X147520000Y-98734000D02*
X147520000Y-100120000D01*
X147520000Y-100120000D02*
X139780000Y-100120000D01*
%TD*%
M02*
