%TF.GenerationSoftware,KiCad,Pcbnew,9.0.6*%
%TF.CreationDate,2025-12-27T11:49:52+07:00*%
%TF.ProjectId,pcd_adc,7063645f-6164-4632-9e6b-696361645f70,rev?*%
%TF.SameCoordinates,Original*%
%TF.FileFunction,Paste,Bot*%
%TF.FilePolarity,Positive*%
%FSLAX46Y46*%
G04 Gerber Fmt 4.6, Leading zero omitted, Abs format (unit mm)*
G04 Created by KiCad (PCBNEW 9.0.6) date 2025-12-27 11:49:52*
%MOMM*%
%LPD*%
G01*
G04 APERTURE LIST*
G04 Aperture macros list*
%AMRoundRect*
0 Rectangle with rounded corners*
0 $1 Rounding radius*
0 $2 $3 $4 $5 $6 $7 $8 $9 X,Y pos of 4 corners*
0 Add a 4 corners polygon primitive as box body*
4,1,4,$2,$3,$4,$5,$6,$7,$8,$9,$2,$3,0*
0 Add four circle primitives for the rounded corners*
1,1,$1+$1,$2,$3*
1,1,$1+$1,$4,$5*
1,1,$1+$1,$6,$7*
1,1,$1+$1,$8,$9*
0 Add four rect primitives between the rounded corners*
20,1,$1+$1,$2,$3,$4,$5,0*
20,1,$1+$1,$4,$5,$6,$7,0*
20,1,$1+$1,$6,$7,$8,$9,0*
20,1,$1+$1,$8,$9,$2,$3,0*%
G04 Aperture macros list end*
%ADD10RoundRect,0.243750X-0.456250X0.243750X-0.456250X-0.243750X0.456250X-0.243750X0.456250X0.243750X0*%
%ADD11RoundRect,0.250000X-0.312500X-0.625000X0.312500X-0.625000X0.312500X0.625000X-0.312500X0.625000X0*%
%ADD12RoundRect,0.250000X-0.625000X0.312500X-0.625000X-0.312500X0.625000X-0.312500X0.625000X0.312500X0*%
%ADD13RoundRect,0.250000X-0.300000X0.500000X-0.300000X-0.500000X0.300000X-0.500000X0.300000X0.500000X0*%
%ADD14RoundRect,0.250000X-0.650000X0.325000X-0.650000X-0.325000X0.650000X-0.325000X0.650000X0.325000X0*%
%ADD15R,1.600000X4.000000*%
%ADD16RoundRect,0.250000X0.625000X-0.312500X0.625000X0.312500X-0.625000X0.312500X-0.625000X-0.312500X0*%
%ADD17RoundRect,0.250000X0.312500X0.625000X-0.312500X0.625000X-0.312500X-0.625000X0.312500X-0.625000X0*%
G04 APERTURE END LIST*
D10*
%TO.C,D3*%
X156950000Y-83862500D03*
X156950000Y-85737500D03*
%TD*%
D11*
%TO.C,C1*%
X174147500Y-77030000D03*
X177072500Y-77030000D03*
%TD*%
D10*
%TO.C,D2*%
X160650000Y-83900000D03*
X160650000Y-85775000D03*
%TD*%
D12*
%TO.C,R9*%
X153400000Y-77850000D03*
X153400000Y-80775000D03*
%TD*%
D13*
%TO.C,SW1*%
X205000000Y-63100000D03*
X205000000Y-72000000D03*
%TD*%
D14*
%TO.C,C3*%
X177000000Y-56025000D03*
X177000000Y-58975000D03*
%TD*%
D11*
%TO.C,C2*%
X168507500Y-77060000D03*
X171432500Y-77060000D03*
%TD*%
D15*
%TO.C,U1*%
X194400000Y-72690000D03*
X191860000Y-72700000D03*
X189320000Y-72700000D03*
X186780000Y-72700000D03*
X184240000Y-72700000D03*
X181700000Y-72700000D03*
X179160000Y-72700000D03*
X176620000Y-72700000D03*
X174080000Y-72700000D03*
X171540000Y-72700000D03*
X169000000Y-72700000D03*
X166460000Y-72700000D03*
X163920000Y-72700000D03*
X161380000Y-72700000D03*
X161380000Y-62690000D03*
X163920000Y-62690000D03*
X166460000Y-62690000D03*
X169000000Y-62690000D03*
X171540000Y-62690000D03*
X174080000Y-62690000D03*
X176620000Y-62690000D03*
X179160000Y-62690000D03*
X181700000Y-62690000D03*
X184240000Y-62690000D03*
X186780000Y-62690000D03*
X189320000Y-62690000D03*
X191860000Y-62690000D03*
X194400000Y-62690000D03*
%TD*%
D12*
%TO.C,R11*%
X156950000Y-77887500D03*
X156950000Y-80812500D03*
%TD*%
D16*
%TO.C,R8*%
X174000000Y-58962500D03*
X174000000Y-56037500D03*
%TD*%
D12*
%TO.C,R10*%
X160650000Y-77887500D03*
X160650000Y-80812500D03*
%TD*%
D10*
%TO.C,D1*%
X153400000Y-83862500D03*
X153400000Y-85737500D03*
%TD*%
D17*
%TO.C,R6*%
X174282500Y-79440000D03*
X171357500Y-79440000D03*
%TD*%
M02*
