%TF.GenerationSoftware,KiCad,Pcbnew,9.0.6*%
%TF.CreationDate,2025-12-27T11:49:52+07:00*%
%TF.ProjectId,pcd_adc,7063645f-6164-4632-9e6b-696361645f70,rev?*%
%TF.SameCoordinates,Original*%
%TF.FileFunction,Legend,Bot*%
%TF.FilePolarity,Positive*%
%FSLAX46Y46*%
G04 Gerber Fmt 4.6, Leading zero omitted, Abs format (unit mm)*
G04 Created by KiCad (PCBNEW 9.0.6) date 2025-12-27 11:49:52*
%MOMM*%
%LPD*%
G01*
G04 APERTURE LIST*
%ADD10C,0.150000*%
%ADD11C,0.120000*%
G04 APERTURE END LIST*
D10*
X155754819Y-84061905D02*
X154754819Y-84061905D01*
X154754819Y-84061905D02*
X154754819Y-84300000D01*
X154754819Y-84300000D02*
X154802438Y-84442857D01*
X154802438Y-84442857D02*
X154897676Y-84538095D01*
X154897676Y-84538095D02*
X154992914Y-84585714D01*
X154992914Y-84585714D02*
X155183390Y-84633333D01*
X155183390Y-84633333D02*
X155326247Y-84633333D01*
X155326247Y-84633333D02*
X155516723Y-84585714D01*
X155516723Y-84585714D02*
X155611961Y-84538095D01*
X155611961Y-84538095D02*
X155707200Y-84442857D01*
X155707200Y-84442857D02*
X155754819Y-84300000D01*
X155754819Y-84300000D02*
X155754819Y-84061905D01*
X154754819Y-84966667D02*
X154754819Y-85585714D01*
X154754819Y-85585714D02*
X155135771Y-85252381D01*
X155135771Y-85252381D02*
X155135771Y-85395238D01*
X155135771Y-85395238D02*
X155183390Y-85490476D01*
X155183390Y-85490476D02*
X155231009Y-85538095D01*
X155231009Y-85538095D02*
X155326247Y-85585714D01*
X155326247Y-85585714D02*
X155564342Y-85585714D01*
X155564342Y-85585714D02*
X155659580Y-85538095D01*
X155659580Y-85538095D02*
X155707200Y-85490476D01*
X155707200Y-85490476D02*
X155754819Y-85395238D01*
X155754819Y-85395238D02*
X155754819Y-85109524D01*
X155754819Y-85109524D02*
X155707200Y-85014286D01*
X155707200Y-85014286D02*
X155659580Y-84966667D01*
X175776666Y-77389580D02*
X175824285Y-77437200D01*
X175824285Y-77437200D02*
X175967142Y-77484819D01*
X175967142Y-77484819D02*
X176062380Y-77484819D01*
X176062380Y-77484819D02*
X176205237Y-77437200D01*
X176205237Y-77437200D02*
X176300475Y-77341961D01*
X176300475Y-77341961D02*
X176348094Y-77246723D01*
X176348094Y-77246723D02*
X176395713Y-77056247D01*
X176395713Y-77056247D02*
X176395713Y-76913390D01*
X176395713Y-76913390D02*
X176348094Y-76722914D01*
X176348094Y-76722914D02*
X176300475Y-76627676D01*
X176300475Y-76627676D02*
X176205237Y-76532438D01*
X176205237Y-76532438D02*
X176062380Y-76484819D01*
X176062380Y-76484819D02*
X175967142Y-76484819D01*
X175967142Y-76484819D02*
X175824285Y-76532438D01*
X175824285Y-76532438D02*
X175776666Y-76580057D01*
X174824285Y-77484819D02*
X175395713Y-77484819D01*
X175109999Y-77484819D02*
X175109999Y-76484819D01*
X175109999Y-76484819D02*
X175205237Y-76627676D01*
X175205237Y-76627676D02*
X175300475Y-76722914D01*
X175300475Y-76722914D02*
X175395713Y-76770533D01*
X159454819Y-84099405D02*
X158454819Y-84099405D01*
X158454819Y-84099405D02*
X158454819Y-84337500D01*
X158454819Y-84337500D02*
X158502438Y-84480357D01*
X158502438Y-84480357D02*
X158597676Y-84575595D01*
X158597676Y-84575595D02*
X158692914Y-84623214D01*
X158692914Y-84623214D02*
X158883390Y-84670833D01*
X158883390Y-84670833D02*
X159026247Y-84670833D01*
X159026247Y-84670833D02*
X159216723Y-84623214D01*
X159216723Y-84623214D02*
X159311961Y-84575595D01*
X159311961Y-84575595D02*
X159407200Y-84480357D01*
X159407200Y-84480357D02*
X159454819Y-84337500D01*
X159454819Y-84337500D02*
X159454819Y-84099405D01*
X158550057Y-85051786D02*
X158502438Y-85099405D01*
X158502438Y-85099405D02*
X158454819Y-85194643D01*
X158454819Y-85194643D02*
X158454819Y-85432738D01*
X158454819Y-85432738D02*
X158502438Y-85527976D01*
X158502438Y-85527976D02*
X158550057Y-85575595D01*
X158550057Y-85575595D02*
X158645295Y-85623214D01*
X158645295Y-85623214D02*
X158740533Y-85623214D01*
X158740533Y-85623214D02*
X158883390Y-85575595D01*
X158883390Y-85575595D02*
X159454819Y-85004167D01*
X159454819Y-85004167D02*
X159454819Y-85623214D01*
X152024819Y-79145833D02*
X151548628Y-78812500D01*
X152024819Y-78574405D02*
X151024819Y-78574405D01*
X151024819Y-78574405D02*
X151024819Y-78955357D01*
X151024819Y-78955357D02*
X151072438Y-79050595D01*
X151072438Y-79050595D02*
X151120057Y-79098214D01*
X151120057Y-79098214D02*
X151215295Y-79145833D01*
X151215295Y-79145833D02*
X151358152Y-79145833D01*
X151358152Y-79145833D02*
X151453390Y-79098214D01*
X151453390Y-79098214D02*
X151501009Y-79050595D01*
X151501009Y-79050595D02*
X151548628Y-78955357D01*
X151548628Y-78955357D02*
X151548628Y-78574405D01*
X152024819Y-79622024D02*
X152024819Y-79812500D01*
X152024819Y-79812500D02*
X151977200Y-79907738D01*
X151977200Y-79907738D02*
X151929580Y-79955357D01*
X151929580Y-79955357D02*
X151786723Y-80050595D01*
X151786723Y-80050595D02*
X151596247Y-80098214D01*
X151596247Y-80098214D02*
X151215295Y-80098214D01*
X151215295Y-80098214D02*
X151120057Y-80050595D01*
X151120057Y-80050595D02*
X151072438Y-80002976D01*
X151072438Y-80002976D02*
X151024819Y-79907738D01*
X151024819Y-79907738D02*
X151024819Y-79717262D01*
X151024819Y-79717262D02*
X151072438Y-79622024D01*
X151072438Y-79622024D02*
X151120057Y-79574405D01*
X151120057Y-79574405D02*
X151215295Y-79526786D01*
X151215295Y-79526786D02*
X151453390Y-79526786D01*
X151453390Y-79526786D02*
X151548628Y-79574405D01*
X151548628Y-79574405D02*
X151596247Y-79622024D01*
X151596247Y-79622024D02*
X151643866Y-79717262D01*
X151643866Y-79717262D02*
X151643866Y-79907738D01*
X151643866Y-79907738D02*
X151596247Y-80002976D01*
X151596247Y-80002976D02*
X151548628Y-80050595D01*
X151548628Y-80050595D02*
X151453390Y-80098214D01*
X202657200Y-66216667D02*
X202704819Y-66359524D01*
X202704819Y-66359524D02*
X202704819Y-66597619D01*
X202704819Y-66597619D02*
X202657200Y-66692857D01*
X202657200Y-66692857D02*
X202609580Y-66740476D01*
X202609580Y-66740476D02*
X202514342Y-66788095D01*
X202514342Y-66788095D02*
X202419104Y-66788095D01*
X202419104Y-66788095D02*
X202323866Y-66740476D01*
X202323866Y-66740476D02*
X202276247Y-66692857D01*
X202276247Y-66692857D02*
X202228628Y-66597619D01*
X202228628Y-66597619D02*
X202181009Y-66407143D01*
X202181009Y-66407143D02*
X202133390Y-66311905D01*
X202133390Y-66311905D02*
X202085771Y-66264286D01*
X202085771Y-66264286D02*
X201990533Y-66216667D01*
X201990533Y-66216667D02*
X201895295Y-66216667D01*
X201895295Y-66216667D02*
X201800057Y-66264286D01*
X201800057Y-66264286D02*
X201752438Y-66311905D01*
X201752438Y-66311905D02*
X201704819Y-66407143D01*
X201704819Y-66407143D02*
X201704819Y-66645238D01*
X201704819Y-66645238D02*
X201752438Y-66788095D01*
X201704819Y-67121429D02*
X202704819Y-67359524D01*
X202704819Y-67359524D02*
X201990533Y-67550000D01*
X201990533Y-67550000D02*
X202704819Y-67740476D01*
X202704819Y-67740476D02*
X201704819Y-67978572D01*
X202704819Y-68883333D02*
X202704819Y-68311905D01*
X202704819Y-68597619D02*
X201704819Y-68597619D01*
X201704819Y-68597619D02*
X201847676Y-68502381D01*
X201847676Y-68502381D02*
X201942914Y-68407143D01*
X201942914Y-68407143D02*
X201990533Y-68311905D01*
X177359580Y-57333333D02*
X177407200Y-57285714D01*
X177407200Y-57285714D02*
X177454819Y-57142857D01*
X177454819Y-57142857D02*
X177454819Y-57047619D01*
X177454819Y-57047619D02*
X177407200Y-56904762D01*
X177407200Y-56904762D02*
X177311961Y-56809524D01*
X177311961Y-56809524D02*
X177216723Y-56761905D01*
X177216723Y-56761905D02*
X177026247Y-56714286D01*
X177026247Y-56714286D02*
X176883390Y-56714286D01*
X176883390Y-56714286D02*
X176692914Y-56761905D01*
X176692914Y-56761905D02*
X176597676Y-56809524D01*
X176597676Y-56809524D02*
X176502438Y-56904762D01*
X176502438Y-56904762D02*
X176454819Y-57047619D01*
X176454819Y-57047619D02*
X176454819Y-57142857D01*
X176454819Y-57142857D02*
X176502438Y-57285714D01*
X176502438Y-57285714D02*
X176550057Y-57333333D01*
X176454819Y-57666667D02*
X176454819Y-58285714D01*
X176454819Y-58285714D02*
X176835771Y-57952381D01*
X176835771Y-57952381D02*
X176835771Y-58095238D01*
X176835771Y-58095238D02*
X176883390Y-58190476D01*
X176883390Y-58190476D02*
X176931009Y-58238095D01*
X176931009Y-58238095D02*
X177026247Y-58285714D01*
X177026247Y-58285714D02*
X177264342Y-58285714D01*
X177264342Y-58285714D02*
X177359580Y-58238095D01*
X177359580Y-58238095D02*
X177407200Y-58190476D01*
X177407200Y-58190476D02*
X177454819Y-58095238D01*
X177454819Y-58095238D02*
X177454819Y-57809524D01*
X177454819Y-57809524D02*
X177407200Y-57714286D01*
X177407200Y-57714286D02*
X177359580Y-57666667D01*
X170136666Y-77419580D02*
X170184285Y-77467200D01*
X170184285Y-77467200D02*
X170327142Y-77514819D01*
X170327142Y-77514819D02*
X170422380Y-77514819D01*
X170422380Y-77514819D02*
X170565237Y-77467200D01*
X170565237Y-77467200D02*
X170660475Y-77371961D01*
X170660475Y-77371961D02*
X170708094Y-77276723D01*
X170708094Y-77276723D02*
X170755713Y-77086247D01*
X170755713Y-77086247D02*
X170755713Y-76943390D01*
X170755713Y-76943390D02*
X170708094Y-76752914D01*
X170708094Y-76752914D02*
X170660475Y-76657676D01*
X170660475Y-76657676D02*
X170565237Y-76562438D01*
X170565237Y-76562438D02*
X170422380Y-76514819D01*
X170422380Y-76514819D02*
X170327142Y-76514819D01*
X170327142Y-76514819D02*
X170184285Y-76562438D01*
X170184285Y-76562438D02*
X170136666Y-76610057D01*
X169755713Y-76610057D02*
X169708094Y-76562438D01*
X169708094Y-76562438D02*
X169612856Y-76514819D01*
X169612856Y-76514819D02*
X169374761Y-76514819D01*
X169374761Y-76514819D02*
X169279523Y-76562438D01*
X169279523Y-76562438D02*
X169231904Y-76610057D01*
X169231904Y-76610057D02*
X169184285Y-76705295D01*
X169184285Y-76705295D02*
X169184285Y-76800533D01*
X169184285Y-76800533D02*
X169231904Y-76943390D01*
X169231904Y-76943390D02*
X169803332Y-77514819D01*
X169803332Y-77514819D02*
X169184285Y-77514819D01*
X196184819Y-66928095D02*
X196994342Y-66928095D01*
X196994342Y-66928095D02*
X197089580Y-66975714D01*
X197089580Y-66975714D02*
X197137200Y-67023333D01*
X197137200Y-67023333D02*
X197184819Y-67118571D01*
X197184819Y-67118571D02*
X197184819Y-67309047D01*
X197184819Y-67309047D02*
X197137200Y-67404285D01*
X197137200Y-67404285D02*
X197089580Y-67451904D01*
X197089580Y-67451904D02*
X196994342Y-67499523D01*
X196994342Y-67499523D02*
X196184819Y-67499523D01*
X197184819Y-68499523D02*
X197184819Y-67928095D01*
X197184819Y-68213809D02*
X196184819Y-68213809D01*
X196184819Y-68213809D02*
X196327676Y-68118571D01*
X196327676Y-68118571D02*
X196422914Y-68023333D01*
X196422914Y-68023333D02*
X196470533Y-67928095D01*
X155574819Y-78707142D02*
X155098628Y-78373809D01*
X155574819Y-78135714D02*
X154574819Y-78135714D01*
X154574819Y-78135714D02*
X154574819Y-78516666D01*
X154574819Y-78516666D02*
X154622438Y-78611904D01*
X154622438Y-78611904D02*
X154670057Y-78659523D01*
X154670057Y-78659523D02*
X154765295Y-78707142D01*
X154765295Y-78707142D02*
X154908152Y-78707142D01*
X154908152Y-78707142D02*
X155003390Y-78659523D01*
X155003390Y-78659523D02*
X155051009Y-78611904D01*
X155051009Y-78611904D02*
X155098628Y-78516666D01*
X155098628Y-78516666D02*
X155098628Y-78135714D01*
X155574819Y-79659523D02*
X155574819Y-79088095D01*
X155574819Y-79373809D02*
X154574819Y-79373809D01*
X154574819Y-79373809D02*
X154717676Y-79278571D01*
X154717676Y-79278571D02*
X154812914Y-79183333D01*
X154812914Y-79183333D02*
X154860533Y-79088095D01*
X155574819Y-80611904D02*
X155574819Y-80040476D01*
X155574819Y-80326190D02*
X154574819Y-80326190D01*
X154574819Y-80326190D02*
X154717676Y-80230952D01*
X154717676Y-80230952D02*
X154812914Y-80135714D01*
X154812914Y-80135714D02*
X154860533Y-80040476D01*
X174454819Y-57333333D02*
X173978628Y-57000000D01*
X174454819Y-56761905D02*
X173454819Y-56761905D01*
X173454819Y-56761905D02*
X173454819Y-57142857D01*
X173454819Y-57142857D02*
X173502438Y-57238095D01*
X173502438Y-57238095D02*
X173550057Y-57285714D01*
X173550057Y-57285714D02*
X173645295Y-57333333D01*
X173645295Y-57333333D02*
X173788152Y-57333333D01*
X173788152Y-57333333D02*
X173883390Y-57285714D01*
X173883390Y-57285714D02*
X173931009Y-57238095D01*
X173931009Y-57238095D02*
X173978628Y-57142857D01*
X173978628Y-57142857D02*
X173978628Y-56761905D01*
X173883390Y-57904762D02*
X173835771Y-57809524D01*
X173835771Y-57809524D02*
X173788152Y-57761905D01*
X173788152Y-57761905D02*
X173692914Y-57714286D01*
X173692914Y-57714286D02*
X173645295Y-57714286D01*
X173645295Y-57714286D02*
X173550057Y-57761905D01*
X173550057Y-57761905D02*
X173502438Y-57809524D01*
X173502438Y-57809524D02*
X173454819Y-57904762D01*
X173454819Y-57904762D02*
X173454819Y-58095238D01*
X173454819Y-58095238D02*
X173502438Y-58190476D01*
X173502438Y-58190476D02*
X173550057Y-58238095D01*
X173550057Y-58238095D02*
X173645295Y-58285714D01*
X173645295Y-58285714D02*
X173692914Y-58285714D01*
X173692914Y-58285714D02*
X173788152Y-58238095D01*
X173788152Y-58238095D02*
X173835771Y-58190476D01*
X173835771Y-58190476D02*
X173883390Y-58095238D01*
X173883390Y-58095238D02*
X173883390Y-57904762D01*
X173883390Y-57904762D02*
X173931009Y-57809524D01*
X173931009Y-57809524D02*
X173978628Y-57761905D01*
X173978628Y-57761905D02*
X174073866Y-57714286D01*
X174073866Y-57714286D02*
X174264342Y-57714286D01*
X174264342Y-57714286D02*
X174359580Y-57761905D01*
X174359580Y-57761905D02*
X174407200Y-57809524D01*
X174407200Y-57809524D02*
X174454819Y-57904762D01*
X174454819Y-57904762D02*
X174454819Y-58095238D01*
X174454819Y-58095238D02*
X174407200Y-58190476D01*
X174407200Y-58190476D02*
X174359580Y-58238095D01*
X174359580Y-58238095D02*
X174264342Y-58285714D01*
X174264342Y-58285714D02*
X174073866Y-58285714D01*
X174073866Y-58285714D02*
X173978628Y-58238095D01*
X173978628Y-58238095D02*
X173931009Y-58190476D01*
X173931009Y-58190476D02*
X173883390Y-58095238D01*
X159274819Y-78707142D02*
X158798628Y-78373809D01*
X159274819Y-78135714D02*
X158274819Y-78135714D01*
X158274819Y-78135714D02*
X158274819Y-78516666D01*
X158274819Y-78516666D02*
X158322438Y-78611904D01*
X158322438Y-78611904D02*
X158370057Y-78659523D01*
X158370057Y-78659523D02*
X158465295Y-78707142D01*
X158465295Y-78707142D02*
X158608152Y-78707142D01*
X158608152Y-78707142D02*
X158703390Y-78659523D01*
X158703390Y-78659523D02*
X158751009Y-78611904D01*
X158751009Y-78611904D02*
X158798628Y-78516666D01*
X158798628Y-78516666D02*
X158798628Y-78135714D01*
X159274819Y-79659523D02*
X159274819Y-79088095D01*
X159274819Y-79373809D02*
X158274819Y-79373809D01*
X158274819Y-79373809D02*
X158417676Y-79278571D01*
X158417676Y-79278571D02*
X158512914Y-79183333D01*
X158512914Y-79183333D02*
X158560533Y-79088095D01*
X158274819Y-80278571D02*
X158274819Y-80373809D01*
X158274819Y-80373809D02*
X158322438Y-80469047D01*
X158322438Y-80469047D02*
X158370057Y-80516666D01*
X158370057Y-80516666D02*
X158465295Y-80564285D01*
X158465295Y-80564285D02*
X158655771Y-80611904D01*
X158655771Y-80611904D02*
X158893866Y-80611904D01*
X158893866Y-80611904D02*
X159084342Y-80564285D01*
X159084342Y-80564285D02*
X159179580Y-80516666D01*
X159179580Y-80516666D02*
X159227200Y-80469047D01*
X159227200Y-80469047D02*
X159274819Y-80373809D01*
X159274819Y-80373809D02*
X159274819Y-80278571D01*
X159274819Y-80278571D02*
X159227200Y-80183333D01*
X159227200Y-80183333D02*
X159179580Y-80135714D01*
X159179580Y-80135714D02*
X159084342Y-80088095D01*
X159084342Y-80088095D02*
X158893866Y-80040476D01*
X158893866Y-80040476D02*
X158655771Y-80040476D01*
X158655771Y-80040476D02*
X158465295Y-80088095D01*
X158465295Y-80088095D02*
X158370057Y-80135714D01*
X158370057Y-80135714D02*
X158322438Y-80183333D01*
X158322438Y-80183333D02*
X158274819Y-80278571D01*
X152204819Y-84061905D02*
X151204819Y-84061905D01*
X151204819Y-84061905D02*
X151204819Y-84300000D01*
X151204819Y-84300000D02*
X151252438Y-84442857D01*
X151252438Y-84442857D02*
X151347676Y-84538095D01*
X151347676Y-84538095D02*
X151442914Y-84585714D01*
X151442914Y-84585714D02*
X151633390Y-84633333D01*
X151633390Y-84633333D02*
X151776247Y-84633333D01*
X151776247Y-84633333D02*
X151966723Y-84585714D01*
X151966723Y-84585714D02*
X152061961Y-84538095D01*
X152061961Y-84538095D02*
X152157200Y-84442857D01*
X152157200Y-84442857D02*
X152204819Y-84300000D01*
X152204819Y-84300000D02*
X152204819Y-84061905D01*
X152204819Y-85585714D02*
X152204819Y-85014286D01*
X152204819Y-85300000D02*
X151204819Y-85300000D01*
X151204819Y-85300000D02*
X151347676Y-85204762D01*
X151347676Y-85204762D02*
X151442914Y-85109524D01*
X151442914Y-85109524D02*
X151490533Y-85014286D01*
X172986666Y-79894819D02*
X173319999Y-79418628D01*
X173558094Y-79894819D02*
X173558094Y-78894819D01*
X173558094Y-78894819D02*
X173177142Y-78894819D01*
X173177142Y-78894819D02*
X173081904Y-78942438D01*
X173081904Y-78942438D02*
X173034285Y-78990057D01*
X173034285Y-78990057D02*
X172986666Y-79085295D01*
X172986666Y-79085295D02*
X172986666Y-79228152D01*
X172986666Y-79228152D02*
X173034285Y-79323390D01*
X173034285Y-79323390D02*
X173081904Y-79371009D01*
X173081904Y-79371009D02*
X173177142Y-79418628D01*
X173177142Y-79418628D02*
X173558094Y-79418628D01*
X172129523Y-78894819D02*
X172319999Y-78894819D01*
X172319999Y-78894819D02*
X172415237Y-78942438D01*
X172415237Y-78942438D02*
X172462856Y-78990057D01*
X172462856Y-78990057D02*
X172558094Y-79132914D01*
X172558094Y-79132914D02*
X172605713Y-79323390D01*
X172605713Y-79323390D02*
X172605713Y-79704342D01*
X172605713Y-79704342D02*
X172558094Y-79799580D01*
X172558094Y-79799580D02*
X172510475Y-79847200D01*
X172510475Y-79847200D02*
X172415237Y-79894819D01*
X172415237Y-79894819D02*
X172224761Y-79894819D01*
X172224761Y-79894819D02*
X172129523Y-79847200D01*
X172129523Y-79847200D02*
X172081904Y-79799580D01*
X172081904Y-79799580D02*
X172034285Y-79704342D01*
X172034285Y-79704342D02*
X172034285Y-79466247D01*
X172034285Y-79466247D02*
X172081904Y-79371009D01*
X172081904Y-79371009D02*
X172129523Y-79323390D01*
X172129523Y-79323390D02*
X172224761Y-79275771D01*
X172224761Y-79275771D02*
X172415237Y-79275771D01*
X172415237Y-79275771D02*
X172510475Y-79323390D01*
X172510475Y-79323390D02*
X172558094Y-79371009D01*
X172558094Y-79371009D02*
X172605713Y-79466247D01*
D11*
%TO.C,D3*%
X155990000Y-83115000D02*
X157910000Y-83115000D01*
X155990000Y-85800000D02*
X155990000Y-83115000D01*
X157910000Y-83115000D02*
X157910000Y-85800000D01*
%TO.C,C1*%
X174882936Y-76120000D02*
X176337064Y-76120000D01*
X174882936Y-77940000D02*
X176337064Y-77940000D01*
%TO.C,D2*%
X159690000Y-83152500D02*
X161610000Y-83152500D01*
X159690000Y-85837500D02*
X159690000Y-83152500D01*
X161610000Y-83152500D02*
X161610000Y-85837500D01*
%TO.C,R9*%
X152490000Y-78585436D02*
X152490000Y-80039564D01*
X154310000Y-78585436D02*
X154310000Y-80039564D01*
%TO.C,SW1*%
X203200000Y-64390000D02*
X203200000Y-70710000D01*
X203200000Y-64390000D02*
X204150000Y-64390000D01*
X203200000Y-70710000D02*
X204940000Y-70710000D01*
X204150000Y-62350000D02*
X204150000Y-64390000D01*
X206800000Y-64390000D02*
X205060000Y-64390000D01*
X206800000Y-64390000D02*
X206800000Y-70710000D01*
X206800000Y-70710000D02*
X205060000Y-70710000D01*
%TO.C,C3*%
X176090000Y-56788748D02*
X176090000Y-58211252D01*
X177910000Y-56788748D02*
X177910000Y-58211252D01*
%TO.C,C2*%
X169242936Y-76150000D02*
X170697064Y-76150000D01*
X169242936Y-77970000D02*
X170697064Y-77970000D01*
%TO.C,U1*%
X160050000Y-65040000D02*
X195730000Y-65040000D01*
X160050000Y-70340000D02*
X160050000Y-65040000D01*
X195730000Y-65040000D02*
X195730000Y-66690000D01*
X195730000Y-68690000D02*
X195730000Y-70340000D01*
X195730000Y-70340000D02*
X160050000Y-70340000D01*
X195730000Y-68690000D02*
G75*
G02*
X195730000Y-66690000I0J1000000D01*
G01*
%TO.C,R11*%
X156040000Y-78622936D02*
X156040000Y-80077064D01*
X157860000Y-78622936D02*
X157860000Y-80077064D01*
%TO.C,R8*%
X173090000Y-58227064D02*
X173090000Y-56772936D01*
X174910000Y-58227064D02*
X174910000Y-56772936D01*
%TO.C,R10*%
X159740000Y-78622936D02*
X159740000Y-80077064D01*
X161560000Y-78622936D02*
X161560000Y-80077064D01*
%TO.C,D1*%
X152440000Y-83115000D02*
X154360000Y-83115000D01*
X152440000Y-85800000D02*
X152440000Y-83115000D01*
X154360000Y-83115000D02*
X154360000Y-85800000D01*
%TO.C,R6*%
X173547064Y-78530000D02*
X172092936Y-78530000D01*
X173547064Y-80350000D02*
X172092936Y-80350000D01*
%TD*%
M02*
